# xmcd CD database file
#
# Track frame offsets:
#	180
#	11088
#	41484
#	58366
#	77854
#	104561
#	128420
#	157180
#	178069
#	200597
#	215453
#	248692
#
# Disc length: 3649 seconds
#
# Revision: 0
# Processed by: cddbd v1.5PL3 Copyright (c) Steve Scherf et al.
# Submitted via: CDex 1.51
#
DISCID=ab0e3f0c
DTITLE=Various Artist - All Time Jazz Favorites cd1
DYEAR=1900
DGENRE=Jazz
TTITLE0=Carmen McRea - Bye Bye Blackbird
TTITLE1=Jimmy Witherspoon - What a wonderfull world
TTITLE2=Dizzy Gillespie - Soul Mama
TTITLE3=Lionel Hampton - Ain't Misbehavin
TTITLE4=Buddy Rich - Buddy's Rock
TTITLE5=Johnny Griffin - Coming on the Hudson
TTITLE6=Ahmad Jamal - Waltz for Debby
TTITLE7=Charles Mingus - So long, Eric
TTITLE8=Claude Bolling - Bowling Green
TTITLE9=Joe Williams - It don't Mean a Thing
TTITLE10=Stan Getz - Autumn Leaves
TTITLE11=John Coltrane - Giant Step
EXTD=
EXTT0=
EXTT1=
EXTT2=
EXTT3=
EXTT4=
EXTT5=
EXTT6=
EXTT7=
EXTT8=
EXTT9=
EXTT10=
EXTT11=
PLAYORDER=
